<svg id="Capa_1" data-name="Capa 1" xmlns="http://www.w3.org/2000/svg" viewBox="0 0 250 250"><defs><style>.cls-1{fill:#b6d4ff;}.cls-2{fill:#fff;}.cls-3{fill:#1ba5db;}.cls-4{fill:#ffc84d;}.cls-5{fill:#ff2238;}.cls-6{fill:#093068;}</style></defs><path class="cls-1" d="M33.79,115.4a7.49,7.49,0,0,1-3.58-6.93c.15-15.76.07-31.59.07-47.35v-49a8.79,8.79,0,0,0-7.84-8.9,8.64,8.64,0,0,0-9.25,6.93A20.49,20.49,0,0,0,13,13.77q0,47.28.07,94.63c0,3.15-.91,5.18-3.57,7A20.58,20.58,0,0,0,0,132.15,21.61,21.61,0,0,0,41.35,142,21.28,21.28,0,0,0,33.79,115.4Zm.42,21.09a12.86,12.86,0,0,1-12.75,9.67A12.86,12.86,0,0,1,9,136.49a12.69,12.69,0,0,1,6.16-14.57c1.9-1,2.18-2.1,2.11-4V25A4.38,4.38,0,0,1,26,25q0,46.55-.07,93c0,1.89.35,2.94,2.17,3.92A12.61,12.61,0,0,1,34.21,136.49Z"/><path class="cls-2" d="M163.73,172.63a6.27,6.27,0,0,1-5.19-4.34A21.09,21.09,0,0,0,138,154.84c-3.44.14-5.47-.91-7.08-3.92a25.68,25.68,0,0,0-28.72-12.75c-11.55,2.87-20,13-19.75,24.93.07,5.61-1,8.83-7,10.65-7.49,2.31-11.62,10.93-10.22,18.56A17.16,17.16,0,0,0,82,206.67c13.1.14,26.2.07,39.22.07,13.18,0,26.34.07,39.51-.07a17.18,17.18,0,0,0,3-34Zm5.18-43.71h-4.35a4.21,4.21,0,0,0-4.2,4.2,4.17,4.17,0,0,0,4.2,4.21h4.35a4.17,4.17,0,0,0,4.2-4.21A4.21,4.21,0,0,0,168.91,128.92ZM156.65,93.48c-.07-.07-.14-.07-.14-.14a3.8,3.8,0,0,0-5.46,0c-1.13,1-2.18,2.17-3.23,3.15a3.91,3.91,0,0,0-.07,5.39c.07,0,.07,0,.07.07a3.88,3.88,0,0,0,5.47.14c1.12-1,2.17-2.1,3.29-3.15A3.87,3.87,0,0,0,156.65,93.48Zm-39.72-16.6a4.21,4.21,0,0,0-4.2,4.2v4.41a4.16,4.16,0,0,0,4.2,4.14,4.1,4.1,0,0,0,4.13-4.14V81.08A4.15,4.15,0,0,0,116.93,76.88ZM86,96.63c-1.05-1-2-2-3.08-3.08a4,4,0,0,0-5.68,0,.06.06,0,0,1-.06.07,4,4,0,0,0,0,5.6l3.08,3.08a3.93,3.93,0,0,0,5.67,0c.07,0,.07,0,.07-.07A4,4,0,0,0,86,96.63ZM69.23,128.92H65a4.22,4.22,0,0,0-4.21,4.2A4.18,4.18,0,0,0,65,137.33h4.27a4.17,4.17,0,0,0,4.2-4.21A4.21,4.21,0,0,0,69.23,128.92Z"/><path class="cls-3" d="M210.94,135.43c-7.36-44.61-44.63-78.24-89.6-80.06-30.25-1.26-55.54,9.95-76,32.22-4.56,4.91-7.71,10-6.38,16.81a1.75,1.75,0,0,1,0,.85c-.28,2.1.56,3.43,2.17,4.76,17.16,14.36,13.24,41.89-7.28,50.78-3.44,1.4-7.22,2.1-11.07,3.22.21,1.19.35,2.53.56,3.86,9.53,51.06,58.91,85.24,110.11,76.28C184.46,235.18,219.34,186.29,210.94,135.43Zm-46.38-6.51h4.35a4.21,4.21,0,0,1,4.2,4.2,4.17,4.17,0,0,1-4.2,4.21h-4.35a4.17,4.17,0,0,1-4.2-4.21A4.21,4.21,0,0,1,164.56,128.92ZM147.82,96.49c1.05-1,2.1-2.1,3.23-3.15a3.8,3.8,0,0,1,5.46,0c0,.07.07.07.14.14a3.87,3.87,0,0,1-.07,5.46c-1.12,1-2.17,2.1-3.29,3.15a3.88,3.88,0,0,1-5.47-.14c0-.07,0-.07-.07-.07A3.91,3.91,0,0,1,147.82,96.49ZM112.73,81.08a4.21,4.21,0,0,1,4.2-4.2,4.15,4.15,0,0,1,4.13,4.2v4.41a4.1,4.1,0,0,1-4.13,4.14,4.16,4.16,0,0,1-4.2-4.14Zm-4,27.67a25.64,25.64,0,0,1,29.49,10c5.67,8.34,6,20.88.56,27.18q-18.5-25.64-47.42-13.38C90.88,122.55,98.44,112.18,108.74,108.75ZM77.22,93.62a.06.06,0,0,0,.06-.07,4,4,0,0,1,5.68,0c1.05,1,2,2.1,3.08,3.08a4,4,0,0,1,0,5.6c0,.07,0,.07-.07.07a3.93,3.93,0,0,1-5.67,0l-3.08-3.08A4,4,0,0,1,77.22,93.62Zm-16.47,39.5a4.22,4.22,0,0,1,4.21-4.2h4.27a4.21,4.21,0,0,1,4.2,4.2,4.17,4.17,0,0,1-4.2,4.21H65A4.18,4.18,0,0,1,60.75,133.12Zm100,73.55c-13.17.14-26.33.07-39.51.07-13,0-26.12.07-39.22-.07a17.16,17.16,0,0,1-16.81-14.36c-1.4-7.63,2.73-16.25,10.22-18.56,6-1.82,7.08-5,7-10.65-.21-11.9,8.2-22.06,19.75-24.93a25.68,25.68,0,0,1,28.72,12.75c1.61,3,3.64,4.06,7.08,3.92a21.09,21.09,0,0,1,20.59,13.45,6.27,6.27,0,0,0,5.19,4.34,17.18,17.18,0,0,1-3,34Z"/><path class="cls-4" d="M138.79,145.94q-18.5-25.64-47.42-13.38c-.49-10,7.07-20.38,17.37-23.81a25.64,25.64,0,0,1,29.49,10C143.9,127.1,144.18,139.64,138.79,145.94Z"/><path class="cls-4" d="M156.58,98.94c-1.12,1-2.17,2.1-3.29,3.15a3.88,3.88,0,0,1-5.47-.14c0-.07,0-.07-.07-.07a3.91,3.91,0,0,1,.07-5.39c1.05-1,2.1-2.1,3.23-3.15a3.8,3.8,0,0,1,5.46,0c0,.07.07.07.14.14A3.87,3.87,0,0,1,156.58,98.94Z"/><path class="cls-4" d="M86,102.23c0,.07,0,.07-.07.07a3.93,3.93,0,0,1-5.67,0l-3.08-3.08a4,4,0,0,1,0-5.6.06.06,0,0,0,.06-.07,4,4,0,0,1,5.68,0c1.05,1,2,2.1,3.08,3.08A4,4,0,0,1,86,102.23Z"/><path class="cls-4" d="M121.06,81.08v4.41a4.1,4.1,0,0,1-4.13,4.14,4.16,4.16,0,0,1-4.2-4.14V81.08a4.21,4.21,0,0,1,4.2-4.2A4.15,4.15,0,0,1,121.06,81.08Z"/><path class="cls-4" d="M73.43,133.12a4.17,4.17,0,0,1-4.2,4.21H65a4.18,4.18,0,0,1-4.21-4.21,4.22,4.22,0,0,1,4.21-4.2h4.27A4.21,4.21,0,0,1,73.43,133.12Z"/><path class="cls-4" d="M173.11,133.12a4.17,4.17,0,0,1-4.2,4.21h-4.35a4.17,4.17,0,0,1-4.2-4.21,4.21,4.21,0,0,1,4.2-4.2h4.35A4.21,4.21,0,0,1,173.11,133.12Z"/><path class="cls-5" d="M34.21,136.49a12.86,12.86,0,0,1-12.75,9.67A12.86,12.86,0,0,1,9,136.49a12.69,12.69,0,0,1,6.16-14.57c1.9-1,2.18-2.1,2.11-4V25A4.38,4.38,0,0,1,26,25q0,46.55-.07,93c0,1.89.35,2.94,2.17,3.92A12.61,12.61,0,0,1,34.21,136.49Z"/><path class="cls-6" d="M115.43,13.53a15.87,15.87,0,0,1,7-5.38,17.78,17.78,0,0,1,9.24-1,17.16,17.16,0,0,1,10,4.66,15.71,15.71,0,0,1,4.63,9.61l-9.21-1.26a7.63,7.63,0,0,0-2.47-3.68,8.32,8.32,0,0,0-4.13-1.71,8.11,8.11,0,0,0-6.64,1.84,10.53,10.53,0,0,0-3.38,6.87A10.53,10.53,0,0,0,121.93,31a8,8,0,0,0,5.9,3.54,8.25,8.25,0,0,0,4.44-.53,7.6,7.6,0,0,0,3.36-2.9l9.21,1.26a15.5,15.5,0,0,1-7,8,17.4,17.4,0,0,1-10.93,1.79,18,18,0,0,1-8.64-3.46,15.86,15.86,0,0,1-5.3-7,18.55,18.55,0,0,1-1-9.37A18.59,18.59,0,0,1,115.43,13.53Z"/><path class="cls-6" d="M156.69,42.88l10.33,4L164.68,53l-18.22-7,12.48-32.4,7.89,3Z"/><path class="cls-6" d="M191.46,28.51l-17,30.25-7.38-4.15,17-30.25Z"/><path class="cls-6" d="M231.43,60.78,208,86.43l-6.25-5.71,14-15.37L196.05,75.5l-5-4.6,8.29-20.69L185.24,65.63,179,59.93l23.4-25.64L209.77,41l-9,24.32,23.32-11.26Z"/><path class="cls-6" d="M226,105.49l-6.49-11.22-6.34,1.27-4.42-7.66,36.33-6.49,4.9,8.49-23.78,28.23-4.47-7.75Zm4.57-5.14,8.84-10.08L226.3,92.93Z"/></svg>